<svg width="1046" height="1046" viewBox="0 0 1046 1046" fill="none"
    xmlns="http://www.w3.org/2000/svg">
    <path
        d="M598.532 110C826.626 110 1011.53 294.906 1011.53 523C1011.53 751.094 826.626 936 598.532 936C370.439 936 34 751.094 34 523C34 294.906 370.439 110 598.532 110ZM598.532 234.791C422.949 234.791 280.611 363.827 280.611 523C280.611 682.173 422.949 811.209 598.532 811.209C774.115 811.209 916.453 682.173 916.453 523C916.453 363.827 774.115 234.791 598.532 234.791Z"
        fill="#F26A10" />
    <path
        d="M723.438 509.776C734.942 517.221 744.66 526.037 752.594 536.224C760.924 546.02 767.47 558.167 772.23 572.664C777.387 588.729 779.965 604.99 779.965 621.447C780.362 637.512 777.387 652.597 771.04 666.703C765.089 680.417 755.371 692.564 741.884 703.143C728.793 713.331 711.538 720.58 690.117 724.89C678.613 727.633 665.126 729.788 649.656 731.355C634.185 732.922 620.301 733.706 608.004 733.706C592.534 734.098 576.468 734.098 559.807 733.706C543.544 733.706 527.676 732.139 512.206 729.004C505.462 727.045 500.504 723.715 497.33 719.013C494.554 713.919 492.57 708.237 491.38 701.968C489.793 698.441 489 694.915 489 691.389V357.55C489 346.579 491.182 338.155 495.545 332.277C500.305 326.008 506.454 321.502 513.991 318.759C521.528 315.624 530.056 313.861 539.577 313.469C549.097 312.686 559.014 312.294 569.328 312.294C577.261 312.294 585.195 312.294 593.129 312.294C601.459 311.902 609.789 311.902 618.119 312.294C631.21 312.686 644.697 313.861 658.581 315.82C672.861 317.388 686.348 320.522 699.042 325.224C704.992 327.183 711.339 329.926 718.083 333.453C724.826 336.587 730.182 340.506 734.148 345.208C746.842 356.571 756.164 369.893 762.114 385.174C768.461 400.064 771.238 415.345 770.445 431.018C769.651 446.299 765.288 460.993 757.354 475.099C749.817 489.205 738.512 500.764 723.438 509.776ZM619.309 665.528C631.607 664.744 644.102 663.373 656.796 661.414C669.49 659.454 678.216 655.732 682.977 650.247C688.134 643.977 691.704 636.728 693.687 628.5C696.067 619.88 696.662 611.26 695.472 602.639C694.679 593.627 692.1 585.203 687.737 577.366C683.77 569.138 678.415 562.673 671.671 557.971C662.548 550.918 652.036 546.412 640.135 544.453C628.235 542.102 616.533 540.926 605.029 540.926C599.475 540.926 594.319 541.122 589.558 541.514C585.195 541.514 581.228 542.102 577.658 543.277C574.485 544.061 572.105 545.824 570.518 548.567C568.931 551.31 568.138 555.424 568.138 560.909C568.931 571.097 568.931 581.285 568.138 591.472C567.344 601.66 566.948 611.455 566.948 620.859C566.948 626.345 566.749 632.418 566.353 639.079C566.353 645.349 568.534 650.638 572.898 654.948C577.261 659.259 583.608 662.197 591.939 663.765C600.269 665.332 609.392 665.92 619.309 665.528ZM631.21 383.411C618.913 383.019 608.599 382.823 600.269 382.823C592.335 382.431 585.988 383.019 581.228 384.586C576.865 385.762 573.691 388.701 571.708 393.403C570.121 397.713 569.526 404.374 569.923 413.386C569.923 420.831 569.724 428.275 569.328 435.72C569.328 442.773 569.328 449.826 569.328 456.879C569.328 464.715 571.906 470.593 577.063 474.511C582.22 478.038 588.567 480.193 596.104 480.976C604.037 481.76 612.169 481.76 620.5 480.976C629.226 480.193 636.763 479.213 643.11 478.038C657.391 475.687 668.299 470.985 675.836 463.932C683.77 456.487 688.332 445.712 689.522 431.606C691.109 413.974 686.348 401.827 675.241 395.166C664.531 388.113 649.854 384.195 631.21 383.411Z"
        fill="white" />
</svg>